
<svg xmlns="http://www.w3.org/2000/svg" version="1.1" xmlns:xlink="http://www.w3.org/1999/xlink" preserveAspectRatio="none" x="0px" y="0px" width="100px" height="100px" viewBox="0 0 100 100">
<defs>
<g id="Layer0_0_FILL">
<path fill="#00CC00" stroke="none" d="
M 98 46.35
Q 98.25 32.9 90.25 22.05 71.6 -3.25 40.35 3.4 3.55 11.3 1.1 49.9 -1.95 98.1 49.3 97.9 98 97.7 98 46.35
M 60.7 84.9
Q 22.05 93.35 10.35 61.6 5.85 46.05 16.2 29.25 26.45 12.5 51.2 14.7 89.85 19.05 84.05 58.85 80.9 80.3 60.7 84.9 Z"/>

<path fill="#01CC00" stroke="none" d="
M 64.5 45
Q 67.85 40.3 67.85 39.35 67.85 32.1 65 31.45 62.6 30.9 57.85 35.1 54.8 37.75 48.4 44.7 41.5 52.2 38.75 54.8 36.4 51.5 33.95 48.9 29.25 43.75 26 43.75 22.75 43.75 21.2 46.25 20.15 47.95 20.15 50
L 21.65 52.95
Q 23.6 56.45 25.75 59.4 32.75 68.85 39.4 68.85 44.5 68.85 56.5 55.05 60.95 49.9 64.5 45 Z"/>
</g>
</defs>

<g transform="matrix( 1, 0, 0, 1, 0,0) ">
<use xlink:href="#Layer0_0_FILL"/>
</g>
</svg>
