
<svg xmlns="http://www.w3.org/2000/svg" version="1.1" xmlns:xlink="http://www.w3.org/1999/xlink" preserveAspectRatio="none" x="0px" y="0px" width="100px" height="100px" viewBox="0 0 100 100">
<defs>
<filter id="Filter_1" x="-20%" y="-24.68623597566822%" width="140%" height="149.37247195133645%" color-interpolation-filters="sRGB">
<feGaussianBlur in="SourceGraphic" stdDeviation="1.6666666666666667,3.3333333333333335" result="result1"/>
</filter>

<g id="shadow2_0_Layer0_0_FILL">
<path fill="#000000" stroke="none" d="
M 116.1 52.95
Q 116.35 36.9 106.8 23.9 84.5 -6.3 47.15 1.65 3.15 11.05 0.2 57.25 -3.45 114.85 57.85 114.6 116.1 114.35 116.1 52.95
M 11.25 71.2
Q 5.9 52.6 18.25 32.55 30.55 12.5 60.1 15.15 106.35 20.35 99.4 67.9 95.65 93.55 71.5 99.05 25.25 109.2 11.25 71.2
M 85.55 46.9
Q 85.55 38.25 82.15 37.45 79.3 36.8 73.6 41.8 69.95 45 62.35 53.3 54.1 62.3 50.8 65.4 47.95 61.45 45.05 58.3 39.45 52.15 35.55 52.15 31.65 52.15 29.8 55.15 28.55 57.2 28.55 59.65
L 30.35 63.15
Q 32.65 67.35 35.25 70.9 43.6 82.15 51.55 82.15 57.65 82.15 72 65.65 77.35 59.5 81.55 53.65 85.55 48.05 85.55 46.9 Z"/>
</g>

<g id="Layer0_0_FILL">
<path fill="#00CC00" stroke="none" d="
M 93.9 41.4
Q 94.05 29.15 86.8 19.25 69.75 -3.8 41.3 2.3 7.75 9.4 5.55 44.65 2.75 88.6 49.45 88.4 93.9 88.2 93.9 41.4
M 59.9 76.55
Q 24.65 84.25 13.95 55.3 9.85 41.1 19.3 25.85 28.7 10.55 51.2 12.55 86.45 16.55 81.15 52.8 78.3 72.3 59.9 76.55 Z"/>

<path fill="#01CC00" stroke="none" d="
M 67.55 41.9
Q 70.6 37.65 70.6 36.8 70.6 30.2 68 29.6 65.85 29.1 61.45 32.9 58.7 35.3 52.95 41.7 46.6 48.5 44.1 50.9 41.9 47.85 39.75 45.45 35.45 40.8 32.5 40.8 29.5 40.8 28.1 43.05 27.1 44.65 27.1 46.5
L 28.55 49.15
Q 30.25 52.35 32.25 55.1 38.6 63.65 44.65 63.65 49.3 63.65 60.3 51.05 64.35 46.35 67.55 41.9 Z"/>
</g>
</defs>

<g filter="url(#Filter_1)" transform="matrix( 1, 0, 0, 1, 0,0) ">
<g transform="matrix( 0.7623748779296875, 0, 0, 0.7623748779296875, 4.95,6.15) ">
<g transform="matrix( 1, 0, 0, 1, 0,0) ">
<use xlink:href="#shadow2_0_Layer0_0_FILL"/>
</g>
</g>
</g>

<g transform="matrix( 1, 0, 0, 1, 0,0) ">
<use xlink:href="#Layer0_0_FILL"/>
</g>
</svg>
