
<svg xmlns="http://www.w3.org/2000/svg" version="1.1" xmlns:xlink="http://www.w3.org/1999/xlink" preserveAspectRatio="none" x="0px" y="0px" width="100px" height="100px" viewBox="0 0 100 100">
<defs>
<filter id="Filter_1" x="-20%" y="-23.50360749973283%" width="140%" height="147.00721499946565%" color-interpolation-filters="sRGB">
<feGaussianBlur in="SourceGraphic" stdDeviation="1.6666666666666667,3.3333333333333335" result="result1"/>
</filter>

<g id="shadow2_0_Layer0_0_FILL">
<path fill="#000000" stroke="none" d="
M 116.1 52.95
Q 116.35 36.9 106.8 23.9 84.5 -6.3 47.15 1.65 3.15 11.05 0.2 57.25 -3.45 114.85 57.85 114.6 116.1 114.35 116.1 52.95
M 11.25 71.2
Q 5.9 52.6 18.25 32.55 30.55 12.5 60.1 15.15 106.35 20.35 99.4 67.9 95.65 93.55 71.5 99.05 25.25 109.2 11.25 71.2
M 85.55 46.9
Q 85.55 38.25 82.15 37.45 79.3 36.8 73.6 41.8 69.95 45 62.35 53.3 54.1 62.3 50.8 65.4 47.95 61.45 45.05 58.3 39.45 52.15 35.55 52.15 31.65 52.15 29.8 55.15 28.55 57.2 28.55 59.65
L 30.35 63.15
Q 32.65 67.35 35.25 70.9 43.6 82.15 51.55 82.15 57.65 82.15 72 65.65 77.35 59.5 81.55 53.65 85.55 48.05 85.55 46.9 Z"/>
</g>

<g id="Layer0_0_FILL">
<path fill="#00CC00" stroke="none" d="
M 97.75 44.9
Q 97.95 31.6 90.05 20.8 71.55 -4.2 40.6 2.4 4.1 10.15 1.65 48.45 -1.35 96.25 49.45 96 97.75 95.8 97.75 44.9
M 16.6 28
Q 26.8 11.35 51.3 13.55 89.65 17.9 83.9 57.3 80.8 78.55 60.75 83.15 22.45 91.55 10.8 60.05 6.4 44.6 16.6 28 Z"/>

<path fill="#01CC00" stroke="none" d="
M 72.4 39.9
Q 72.4 32.7 69.6 32.05 67.25 31.5 62.5 35.65 59.5 38.3 53.2 45.2 46.35 52.65 43.6 55.25 41.25 51.95 38.85 49.35 34.2 44.25 30.95 44.25 27.75 44.25 26.2 46.75 25.15 48.45 25.15 50.45
L 26.65 53.35
Q 28.55 56.85 30.7 59.8 37.65 69.1 44.25 69.1 49.3 69.1 61.2 55.45 65.6 50.35 69.1 45.5 72.4 40.85 72.4 39.9 Z"/>
</g>
</defs>

<g filter="url(#Filter_1)" transform="matrix( 1, 0, 0, 1, 0,0) ">
<g transform="matrix( 0.829071044921875, 0, 0, 0.829071044921875, 1.4,3.75) ">
<g transform="matrix( 1, 0, 0, 1, 0,0) ">
<use xlink:href="#shadow2_0_Layer0_0_FILL"/>
</g>
</g>
</g>

<g transform="matrix( 1, 0, 0, 1, 0,0) ">
<use xlink:href="#Layer0_0_FILL"/>
</g>
</svg>
