
<svg xmlns="http://www.w3.org/2000/svg" version="1.1" xmlns:xlink="http://www.w3.org/1999/xlink" preserveAspectRatio="none" x="0px" y="0px" width="100px" height="100px" viewBox="0 0 100 100">
<defs>
<filter id="Filter_1" x="-20%" y="-23.496504076534656%" width="140%" height="146.9930081530693%" color-interpolation-filters="sRGB">
<feGaussianBlur in="SourceGraphic" stdDeviation="1.6666666666666667,3.3333333333333335" result="result1"/>
</filter>

<g id="shadow1_0_Layer0_0_FILL">
<path fill="#000000" stroke="none" d="
M 111.7 57.25
Q 108.85 11.05 66.45 1.65 30.45 -6.3 8.95 23.9 -0.25 36.9 0 52.95 0 114.35 56.15 114.6 115.25 114.85 111.7 57.25
M 94.3 32.55
Q 106.2 52.6 101.05 71.2 87.55 109.2 43 99.05 19.7 93.55 16.1 67.9 9.4 20.35 54 15.15 82.45 12.5 94.3 32.55
M 70.95 39.95
Q 53.95 25.95 53.95 42.55 53.95 45.1 54.6 46.6 55 47.7 56.7 51.55 38.6 51.25 32.9 53.9 29.95 55.3 29.95 58.9 29.95 59.1 29.9 60.6 30.25 62.3 32.3 63.55 38.7 67.4 59.95 66.3 58.5 69.75 58.9 73.35 59.5 79.05 65.95 79.05 70.7 79.05 87.95 57.55 79.45 47 70.95 39.95 Z"/>
</g>

<g id="Layer0_0_FILL">
<path fill="#FFCC33" stroke="none" d="
M 10.9 20.6
Q 3.3 31.35 3.5 44.7 3.5 95.6 50.1 95.8 99.1 96.05 96.15 48.25 93.8 9.9 58.65 2.1 28.75 -4.5 10.9 20.6
M 81.75 27.75
Q 91.6 44.4 87.35 59.8 76.15 91.35 39.15 82.9 19.85 78.35 16.85 57.1 11.3 17.65 48.3 13.3 71.9 11.1 81.75 27.75
M 76.45 48.5
Q 69.4 39.75 62.35 33.9 48.25 22.3 48.25 36.05 48.25 38.15 48.8 39.4 49.15 40.3 50.55 43.5 35.5 43.25 30.8 45.45 28.35 46.65 28.35 49.6 28.35 49.8 28.3 51 28.6 52.45 30.3 53.45 35.6 56.65 53.25 55.75 52.05 58.6 52.35 61.6 52.85 66.35 58.2 66.35 62.15 66.35 76.45 48.5 Z"/>
</g>
</defs>

<g filter="url(#Filter_1)" transform="matrix( 1, 0, 0, 1, 0,0) ">
<g transform="matrix( 0.8295745849609375, 0, 0, 0.8295745849609375, 3.5,3.25) ">
<g transform="matrix( 1, 0, 0, 1, 0,0) ">
<use xlink:href="#shadow1_0_Layer0_0_FILL"/>
</g>
</g>
</g>

<g transform="matrix( 1, 0, 0, 1, 0,0) ">
<use xlink:href="#Layer0_0_FILL"/>
</g>
</svg>
