
<svg xmlns="http://www.w3.org/2000/svg" version="1.1" xmlns:xlink="http://www.w3.org/1999/xlink" preserveAspectRatio="none" x="0px" y="0px" width="100px" height="100px" viewBox="0 0 100 100">
<defs>
<g id="Layer0_0_FILL">
<path fill="#FA6900" stroke="none" d="
M 10.6 22.3
Q 2.85 33.2 3.05 46.65 3.05 98.15 50.15 98.35 99.7 98.55 96.75 50.25 94.35 11.5 58.8 3.65 28.6 -3.05 10.6 22.3
M 82.15 29.55
Q 92.15 46.35 87.8 61.95 76.5 93.8 39.15 85.3 19.6 80.7 16.55 59.2 10.95 19.3 48.35 14.95 72.2 12.75 82.15 29.55
M 46.25 42
Q 46.6 42.9 48 46.15 32.85 45.9 28.05 48.1 25.6 49.3 25.6 52.3 25.6 52.5 25.55 53.75 25.85 55.15 27.55 56.2 32.95 59.45 50.75 58.5 49.55 61.4 49.85 64.45 50.35 69.2 55.8 69.2 59.75 69.2 74.25 51.2 67.1 42.35 59.95 36.4 45.7 24.7 45.7 38.6 45.7 40.75 46.25 42 Z"/>
</g>
</defs>

<g transform="matrix( 1, 0, 0, 1, 0,0) ">
<use xlink:href="#Layer0_0_FILL"/>
</g>
</svg>
