
<svg xmlns="http://www.w3.org/2000/svg" version="1.1" xmlns:xlink="http://www.w3.org/1999/xlink" preserveAspectRatio="none" x="0px" y="0px" width="530px" height="180px" viewBox="0 0 530 180">
<defs>
<g id="Layer0_0_FILL">
<path fill="#69D2E7" stroke="none" d="
M 146.95 32.8
Q 157.7 32.9 160.2 32.05 163.5 30.8 163.5 25.25 163.5 14.8 142.6 14.45 138.9 13.85 134.4 13.45 114.85 12 86.75 15.45 58.55 18.9 39.1 25.25 23.85 30.3 19.4 35.5 13.7 38.85 13.7 42.45 13.7 45.4 15.3 47.75 18.3 52.2 26.1 52.2 34.65 52.2 50.25 47.25 64.2 42.95 69.65 41.3 70.3 51.7 73.75 67.55 78.6 89.6 79.35 103.1 79.55 106.8 78.45 121.7 77.45 135.8 78.2 143.85 80.55 169.95 102.25 169.95 108.05 169.95 111.25 166.85 111.4 166.75 111.65 166.5 112.75 165.4 113.6 163.75 115.25 160.7 115.25 156.35 115.25 148.05 108.2 112.65 101.1 78.85 101 78.2 97.05 61 97.9 39.2 97.55 37.6 97.15 36.1 123.05 32.4 146.95 32.8
M 148.65 20.15
Q 148.65 23.35 144.95 24.1 142.85 24.6 133.55 24.75 110.3 25 88.5 30.55 89.95 33.15 90.45 36.5 91.7 43.9 93.2 58.8 93.55 63.25 97.65 82.55 101.6 101 101.6 103 101.6 105.35 100 107.2 98.25 109.3 95.4 109.3 88.1 109.3 81.8 69.55
L 77.2 33.65
Q 69.9 35.4 59.25 37.6 43.55 41.05 42.2 41.05 36 41.05 34.15 38.25 33.5 37.25 33.5 35 33.5 31.05 51.45 25.85 68.05 21.15 91.1 17.9 148.65 9.6 148.65 20.15
M 328.55 95.7
Q 328.95 95.9 329.3 96.15 329.05 95.9 328.95 95.8 314.1 84.3 279.55 81.55 278.8 68.3 278.3 61.65 277.7 49.5 276.55 41.7 275.55 33.75 274.95 31.65 273.6 25 271.35 21.5 264.2 12.2 258.6 15.55 253.8 18.65 254.15 24.75 260.7 62.25 261.1 67.3 262.2 82.7 259.5 114 257 145.55 257 146.45 257.15 148.4 257 152.4 257.35 155.75 260.2 157.6 267.75 162.15 300.85 159.8 325.1 157.95 335.25 139.75 341.3 128.5 340.6 118.35 340.1 110.9 336.85 105.1 336.6 106.55 335.6 107.95 333.9 110.4 330.05 110.4 328.55 110.4 320.4 105.95 311.85 101.25 309.85 100.75 290.2 96.15 286.45 95.05 283.6 94.3 283.6 93.1 283.6 83.3 306.15 88 307.4 88.1 308.4 88.25 311.6 88.85 319.9 91.2
L 320.25 91.95
Q 324.75 93.55 328.55 95.7
M 266.3 21
Q 274.95 33.9 274.95 48.85 274.95 57.15 268.75 57.15 264.2 57.15 260.45 40.85
L 257.6 24.5
Q 257.6 16.7 260.35 16.2 262.7 15.8 266.3 21
M 309 141.25
L 288.35 142.95
Q 287.1 143.1 283.25 142.85 278.9 142.75 274.1 142.85
L 274.1 142.6
Q 276.05 134.2 276.95 120.3 278.05 101.25 278.3 99.4 300.85 99.25 313.1 106.3 322.75 112 323.25 119.7 323.75 125.25 320.75 129.1 320.5 129.35 309 141.25
M 473.05 78.1
Q 457.95 76.85 447.55 87.15 445.45 89.25 443.7 91.7 446.05 88.75 450.4 86.25 459.05 81.3 471.2 80.55 480.1 80.1 486.95 82.05 480.5 78.7 473.05 78.1
M 507.6 143.2
Q 510.2 137.15 510.2 125.5 510.2 107.05 501.05 94.7 501.55 96.65 501.55 99 501.55 105.45 496.6 105.45 494.85 105.45 488.65 97.8 482.45 90 476.55 90 459.3 90 453.1 98.4 451.65 100.4 449.8 104.1 448.15 106.7 445.8 106.7 443.95 106.7 443.2 106.3 442.5 105.6 441.5 105.1 440.85 100.5 440.85 99.5 440.85 96.65 442.25 94.05 435.9 104.6 435.9 120.55 435.9 120.95 436.3 127.15 437.4 134.3 440.75 140.15 451.15 158.7 479.85 158.7 500.9 158.7 507.6 143.2
M 488.4 103.25
Q 495.35 112.25 495.35 125 495.35 125.25 494.1 134.3 490.75 143.2 480 143.2 463.3 143.2 455.6 133.3 450.75 127.15 450.75 120.7 450.75 105.95 457.7 98.65 463.9 92.2 473.05 93.7 482.1 95.05 488.4 103.25 Z"/>

<path fill="#A7DBD8" stroke="none" d="
M 144.95 24.1
Q 148.65 23.35 148.65 20.15 148.65 9.6 91.1 17.9 68.05 21.15 51.45 25.85 33.5 31.05 33.5 35 33.5 37.25 34.15 38.25 36 41.05 42.2 41.05 43.55 41.05 59.25 37.6 69.9 35.4 77.2 33.65
L 81.8 69.55
Q 88.1 109.3 95.4 109.3 98.25 109.3 100 107.2 101.6 105.35 101.6 103 101.6 101 97.65 82.55 93.55 63.25 93.2 58.8 91.7 43.9 90.45 36.5 89.95 33.15 88.5 30.55 110.3 25 133.55 24.75 142.85 24.6 144.95 24.1
M 141.25 18.8
Q 140.75 19.55 125.15 19.55 109.55 19.55 109.05 18.8 110.3 17.9 110.3 17.55 140.6 17.9 141.25 18.8
M 329.3 96.15
Q 328.95 95.9 328.55 95.7 324.75 93.55 320.25 91.95
L 320.75 93.1
Q 320.5 94.7 320.25 95.05 319.8 95.55 317.65 95.55 315.8 95.55 307.9 93.8 299.95 91.95 291.05 91.85 289.45 91.2 288.55 90.25 288.55 89.5 289.2 88.5 289.95 87.25 291.05 86.9 301.2 87.4 306.15 88 283.6 83.3 283.6 93.1 283.6 94.3 286.45 95.05 290.2 96.15 309.85 100.75 311.85 101.25 320.4 105.95 328.55 110.4 330.05 110.4 333.9 110.4 335.6 107.95 336.6 106.55 336.85 105.1 336.85 104.6 336.85 104.2 336.85 100.4 329.3 96.15
M 274.95 48.85
Q 274.95 33.9 266.3 21 262.7 15.8 260.35 16.2 257.6 16.7 257.6 24.5
L 260.45 40.85
Q 264.2 57.15 268.75 57.15 274.95 57.15 274.95 48.85
M 501.05 94.7
Q 499.3 88 492 84.15 489.65 82.9 486.95 82.05 480.1 80.1 471.2 80.55 459.05 81.3 450.4 86.25 446.05 88.75 443.7 91.7 442.85 92.85 442.25 94.05 440.85 96.65 440.85 99.5 440.85 100.5 441.5 105.1 442.5 105.6 443.2 106.3 443.95 106.7 445.8 106.7 448.15 106.7 449.8 104.1 451.65 100.4 453.1 98.4 459.3 90 476.55 90 482.45 90 488.65 97.8 494.85 105.45 496.6 105.45 501.55 105.45 501.55 99 501.55 96.65 501.05 94.7
M 461.15 89.25
Q 455.5 91.7 454.5 91.85 453 91.2 452 90.25 453.75 86.65 460.05 84.3 467.35 81.55 478 81.95 480.1 82.7 480.5 84.4
L 479.6 86.9
Q 465.4 87.5 461.15 89.25 Z"/>

<path fill="#FFFFFF" stroke="none" d="
M 125.15 19.55
Q 140.75 19.55 141.25 18.8 140.6 17.9 110.3 17.55 110.3 17.9 109.05 18.8 109.55 19.55 125.15 19.55 Z"/>

<path fill="#FF9933" stroke="none" d="
M 166.6 80.7
Q 165.75 80.45 165.4 80.1 167.85 77.7 169.45 76.5 165.25 77.5 162.65 78.7 157.95 80.95 157.95 84.55
L 158.2 86.65
Q 159.05 88.75 161.65 88.75 163.15 88.75 167.75 84.9 175.3 81.05 192 81.05 199.9 81.05 206.85 84.9 213.8 88.75 214.9 88.75 217 88.75 218 87.15 218.6 86 218.6 85.05 218.5 82.7 212.9 79.6 211.45 78.85 209.7 77.95 199.2 73 187.05 73.65 183.7 74 180.75 74.5 185.8 74.75 193 76
L 193.25 76.35
Q 191.75 77.35 190.9 77.25 186.8 76.75 181.85 76.75 173.45 76.75 169.6 78.6 167.35 80.45 166.6 80.7
M 210.55 117.6
Q 210.55 114.5 206.6 113.25 202.15 111.9 187.65 110.65 181.95 111.3 177.65 112.25 169.1 114.1 169.1 117.85 169.1 117.95 169.35 119.7 170.2 121.55 172.8 121.55 175.15 121.55 179.25 119.8 183.35 118.1 191.5 118.1 195.2 118.1 200.8 119.8 206.25 121.55 206.85 121.55 208.95 121.55 209.95 119.95 210.55 118.85 210.55 117.6
M 416.7 96.3
Q 416.7 89.6 407.95 85.9 406.45 85.3 404.85 84.8
L 404.95 85.05
Q 404.85 85.4 404.7 85.9 404.45 86.25 403.45 86.25 402.6 86.25 400.25 85.5 398.05 84.65 392.6 84.65 387.4 84.65 381.05 85.75 375.75 86.9 375.6 86.9 374.65 86.9 374.4 86.75 374.25 86.5 374 86.25 378.85 83.8 381.05 82.9 374.5 83.55 369.2 85.3 360.4 88.25 360.4 92.85
L 360.65 94.7
Q 361.4 96.8 364.1 96.8 366.2 96.8 370.05 93.2 377.1 89.6 395.05 89.6 398.05 89.6 405.45 94.8 412.75 99.9 413 99.9 414.6 99.9 415.75 98.5 416.7 97.4 416.7 96.3 Z"/>

<path fill="#FFCC66" stroke="none" d="
M 180.75 74.5
Q 174.8 74 171.8 75 171.05 75.25 169.45 76.5 167.85 77.7 165.4 80.1 165.75 80.45 166.6 80.7 167.35 80.45 169.6 78.6 173.45 76.75 181.85 76.75 186.8 76.75 190.9 77.25 191.75 77.35 193.25 76.35
L 193 76
Q 185.8 74.75 180.75 74.5
M 382.55 82.45
Q 382.05 82.55 381.05 82.9 378.85 83.8 374 86.25 374.25 86.5 374.4 86.75 374.65 86.9 375.6 86.9 375.75 86.9 381.05 85.75 387.4 84.65 392.6 84.65 398.05 84.65 400.25 85.5 402.6 86.25 403.45 86.25 404.45 86.25 404.7 85.9 404.85 85.4 404.95 85.05
L 404.85 84.8 404.45 84.15
Q 390.1 80.8 382.55 82.45 Z"/>

<path fill="#FA6900" stroke="none" d="
M 171.8 75
Q 174.8 74 180.75 74.5 183.7 74 187.05 73.65 199.2 73 209.7 77.95 211.45 78.85 212.9 79.6 202.9 71.65 189.25 70.3 172.3 68.7 159.7 77.35 146.2 86.5 146.2 101.6
L 146.45 105.45
Q 147.8 109.8 153 109.05 158.05 108.55 159.3 104.85 160.05 100.25 160.9 97.3 164.25 86 188.3 83.05 202.5 81.3 212.05 96.8 217 104.7 219.1 113.25 219.1 114.85 219 115.25 219 115.35 218.6 115.75 210.7 112.4 200.65 110.4 189.5 108.45 182.1 109.3 165.25 111.4 155.85 126.5 149.4 137.15 149.4 145.55 149.4 153 153.5 156.85 161.55 163.9 184.3 161.15 196.35 159.7 208.1 155 216.9 151.4 219 149.4 218.85 151.15 220.35 153 222.35 155.6 225.9 155.1 231.85 154.35 232.85 141.85 232.75 129 232.75 127.6 232.6 101 219.1 85.5 218.85 85.3 218.6 85.05 218.6 86 218 87.15 217 88.75 214.9 88.75 213.8 88.75 206.85 84.9 199.9 81.05 192 81.05 175.3 81.05 167.75 84.9 163.15 88.75 161.65 88.75 159.05 88.75 158.2 86.65
L 157.95 84.55
Q 157.95 80.95 162.65 78.7 165.25 77.5 169.45 76.5 171.05 75.25 171.8 75
M 217.15 133.2
Q 217.15 136.8 208.45 141 198.55 145.8 184.3 147.7 171.95 149.15 167.25 148.3 162.9 147.7 162.9 144.35 162.9 133.05 171.45 127.6 178.4 123.15 189.9 123.55 199.9 123.55 208.85 126.65 217 129.85 217.15 133.2
M 206.6 113.25
Q 210.55 114.5 210.55 117.6 210.55 118.85 209.95 119.95 208.95 121.55 206.85 121.55 206.25 121.55 200.8 119.8 195.2 118.1 191.5 118.1 183.35 118.1 179.25 119.8 175.15 121.55 172.8 121.55 170.2 121.55 169.35 119.7 169.1 117.95 169.1 117.85 169.1 114.1 177.65 112.25 181.95 111.3 187.65 110.65 202.15 111.9 206.6 113.25
M 387.65 76.75
Q 372.5 76.6 362.1 86.5 350.5 97.65 350.5 116.7 350.5 118.85 351.45 123.15 352.95 130.1 356.05 135.8 365.95 153.75 387.65 153.75 409.8 153.75 419.2 137.3 424.75 127.75 424.75 116.35 424.75 97.9 413.15 86.9 402.75 76.85 387.65 76.75
M 407.95 85.9
Q 416.7 89.6 416.7 96.3 416.7 97.4 415.75 98.5 414.6 99.9 413 99.9 412.75 99.9 405.45 94.8 398.05 89.6 395.05 89.6 377.1 89.6 370.05 93.2 366.2 96.8 364.1 96.8 361.4 96.8 360.65 94.7
L 360.4 92.85
Q 360.4 88.25 369.2 85.3 374.5 83.55 381.05 82.9 382.05 82.55 382.55 82.45 390.1 80.8 404.45 84.15
L 404.85 84.8
Q 406.45 85.3 407.95 85.9
M 387.75 138.25
Q 375.1 138.25 369.2 128.35 365.35 122.15 365.35 116.25 365.35 111.3 368.2 103.95 371.65 94.95 376.5 94.55 398.4 96.55 405.85 104.2 409.9 108.45 409.9 116.35 409.9 116.5 409.65 119.95 409.15 124.15 407.45 127.5 402.25 138.25 387.75 138.25 Z"/>

<path fill="#E0E4CC" stroke="none" d="
M 289.2 88.5
Q 288.55 89.5 288.55 90.25 289.45 91.2 291.05 91.85 299.95 91.95 307.9 93.8 315.8 95.55 317.65 95.55 319.8 95.55 320.25 95.05 320.5 94.7 320.75 93.1
L 320.25 91.95 319.9 91.2
Q 311.6 88.85 308.4 88.25 307.4 88.1 306.15 88 301.2 87.4 291.05 86.9 289.95 87.25 289.2 88.5
M 454.5 91.85
Q 455.5 91.7 461.15 89.25 465.4 87.5 479.6 86.9
L 480.5 84.4
Q 480.1 82.7 478 81.95 467.35 81.55 460.05 84.3 453.75 86.65 452 90.25 453 91.2 454.5 91.85 Z"/>
</g>
</defs>

<g transform="matrix( 1, 0, 0, 1, 0,0) ">
<use xlink:href="#Layer0_0_FILL"/>
</g>
</svg>
