
<svg xmlns="http://www.w3.org/2000/svg" version="1.1" xmlns:xlink="http://www.w3.org/1999/xlink" preserveAspectRatio="none" x="0px" y="0px" width="530px" height="180px" viewBox="0 0 530 180">
<defs>
<filter id="Filter_1" x="-20%" y="-20%" width="140%" height="140%" color-interpolation-filters="sRGB">
<feGaussianBlur in="SourceGraphic" stdDeviation="1.6666666666666667,3.3333333333333335" result="result1"/>
</filter>

<g id="shadow_0_Layer0_0_FILL">
<path fill="#000000" stroke="none" d="
M 146.5 19.05
Q 149.8 17.8 149.8 12.25 149.8 1.8 128.9 1.45 125.2 0.85 120.7 0.45 101.15 -1 73.05 2.45 44.85 5.9 25.4 12.25 10.15 17.3 5.7 22.5 0 25.85 0 29.45 0 32.4 1.6 34.75 4.6 39.2 12.4 39.2 20.95 39.2 36.55 34.25 50.5 29.95 55.95 28.3 56.6 38.7 60.05 54.55 64.9 76.6 65.65 90.1 65.85 93.8 64.75 108.7 63.75 122.8 64.5 130.85 66.85 156.95 88.55 156.95 94.35 156.95 97.55 153.85 97.7 153.75 97.95 153.5 99.05 152.4 99.9 150.75 101.55 147.7 101.55 143.35 101.55 135.05 94.5 99.65 87.4 65.85 87.3 65.2 83.35 48 84.2 26.2 83.85 24.6 83.45 23.1 109.35 19.4 133.25 19.8 144 19.9 146.5 19.05
M 186.95 97.4
Q 175.8 95.45 168.4 96.3 151.55 98.4 142.15 113.5 135.7 124.15 135.7 132.55 135.7 140 139.8 143.85 147.85 150.9 170.6 148.15 182.65 146.7 194.4 142 203.2 138.4 205.3 136.4 205.15 138.15 206.65 140 208.65 142.6 212.2 142.1 218.15 141.35 219.15 128.85 219.05 116 219.05 114.6 218.9 88 205.4 72.5 205.15 72.3 204.9 72.05 204.8 69.7 199.2 66.6 189.2 58.65 175.55 57.3 158.6 55.7 146 64.35 132.5 73.5 132.5 88.6
L 132.75 92.45
Q 134.1 96.8 139.3 96.05 144.35 95.55 145.6 91.85 146.35 87.25 147.2 84.3 150.55 73 174.6 70.05 188.8 68.3 198.35 83.8 203.3 91.7 205.4 100.25 205.4 101.85 205.3 102.25 205.3 102.35 204.9 102.75 197 99.4 186.95 97.4
M 194.75 128
Q 184.85 132.8 170.6 134.7 158.25 136.15 153.55 135.3 149.2 134.7 149.2 131.35 149.2 120.05 157.75 114.6 164.7 110.15 176.2 110.55 186.2 110.55 195.15 113.65 203.3 116.85 203.45 120.2 203.45 123.8 194.75 128
M 264.6 48.65
Q 264 36.5 262.85 28.7 261.85 20.75 261.25 18.65 259.9 12 257.65 8.5 250.5 -0.8 244.9 2.55 240.1 5.65 240.45 11.75 247 49.25 247.4 54.3 248.5 69.7 245.8 101 243.3 132.55 243.3 133.45 243.45 135.4 243.3 139.4 243.65 142.75 246.5 144.6 254.05 149.15 287.15 146.8 311.4 144.95 321.55 126.75 327.6 115.5 326.9 105.35 326.4 97.9 323.15 92.1 323.15 91.6 323.15 91.2 323.15 87.4 315.6 83.15 315.35 82.9 315.25 82.8 300.4 71.3 265.85 68.55 265.1 55.3 264.6 48.65
M 264.6 86.4
Q 287.15 86.25 299.4 93.3 309.05 99 309.55 106.7 310.05 112.25 307.05 116.1 306.8 116.35 295.3 128.25
L 274.65 129.95
Q 273.4 130.1 269.55 129.85 265.2 129.75 260.4 129.85
L 260.4 129.6
Q 262.35 121.2 263.25 107.3 264.35 88.25 264.6 86.4
M 399.45 73.9
Q 389.05 63.85 373.95 63.75 358.8 63.6 348.4 73.5 336.8 84.65 336.8 103.7 336.8 105.85 337.75 110.15 339.25 117.1 342.35 122.8 352.25 140.75 373.95 140.75 396.1 140.75 405.5 124.3 411.05 114.75 411.05 103.35 411.05 84.9 399.45 73.9
M 354.5 90.95
Q 357.95 81.95 362.8 81.55 384.7 83.55 392.15 91.2 396.2 95.45 396.2 103.35 396.2 103.5 395.95 106.95 395.45 111.15 393.75 114.5 388.55 125.25 374.05 125.25 361.4 125.25 355.5 115.35 351.65 109.15 351.65 103.25 351.65 98.3 354.5 90.95
M 493.9 130.2
Q 496.5 124.15 496.5 112.5 496.5 94.05 487.35 81.7 485.6 75 478.3 71.15 475.95 69.9 473.25 69.05 466.8 65.7 459.35 65.1 444.25 63.85 433.85 74.15 431.75 76.25 430 78.7 429.15 79.85 428.55 81.05 422.2 91.6 422.2 107.55 422.2 107.95 422.6 114.15 423.7 121.3 427.05 127.15 437.45 145.7 466.15 145.7 487.2 145.7 493.9 130.2
M 459.35 80.7
Q 468.4 82.05 474.7 90.25 481.65 99.25 481.65 112 481.65 112.25 480.4 121.3 477.05 130.2 466.3 130.2 449.6 130.2 441.9 120.3 437.05 114.15 437.05 107.7 437.05 92.95 444 85.65 450.2 79.2 459.35 80.7 Z"/>
</g>

<g id="Layer0_0_FILL">
<path fill="#69D2E7" stroke="none" d="
M 146.95 26.8
Q 157.7 26.9 160.2 26.05 163.5 24.8 163.5 19.25 163.5 8.8 142.6 8.45 138.9 7.85 134.4 7.45 114.85 6 86.75 9.45 58.55 12.9 39.1 19.25 23.85 24.3 19.4 29.5 13.7 32.85 13.7 36.45 13.7 39.4 15.3 41.75 18.3 46.2 26.1 46.2 34.65 46.2 50.25 41.25 64.2 36.95 69.65 35.3 70.3 45.7 73.75 61.55 78.6 83.6 79.35 97.1 79.55 100.8 78.45 115.7 77.45 129.8 78.2 137.85 80.55 163.95 102.25 163.95 108.05 163.95 111.25 160.85 111.4 160.75 111.65 160.5 112.75 159.4 113.6 157.75 115.25 154.7 115.25 150.35 115.25 142.05 108.2 106.65 101.1 72.85 101 72.2 97.05 55 97.9 33.2 97.55 31.6 97.15 30.1 123.05 26.4 146.95 26.8
M 336.85 98.2
Q 336.85 94.4 329.3 90.15 329.05 89.9 328.95 89.8 314.1 78.3 279.55 75.55 278.8 62.3 278.3 55.65 277.7 43.5 276.55 35.7 275.55 27.75 274.95 25.65 273.6 19 271.35 15.5 264.2 6.2 258.6 9.55 253.8 12.65 254.15 18.75 260.7 56.25 261.1 61.3 262.2 76.7 259.5 108 257 139.55 257 140.45 257.15 142.4 257 146.4 257.35 149.75 260.2 151.6 267.75 156.15 300.85 153.8 325.1 151.95 335.25 133.75 341.3 122.5 340.6 112.35 340.1 104.9 336.85 99.1 336.85 98.6 336.85 98.2
M 309 135.25
L 288.35 136.95
Q 287.1 137.1 283.25 136.85 278.9 136.75 274.1 136.85
L 274.1 136.6
Q 276.05 128.2 276.95 114.3 278.05 95.25 278.3 93.4 300.85 93.25 313.1 100.3 322.75 106 323.25 113.7 323.75 119.25 320.75 123.1 320.5 123.35 309 135.25
M 492 78.15
Q 489.65 76.9 486.95 76.05 480.5 72.7 473.05 72.1 457.95 70.85 447.55 81.15 445.45 83.25 443.7 85.7 442.85 86.85 442.25 88.05 435.9 98.6 435.9 114.55 435.9 114.95 436.3 121.15 437.4 128.3 440.75 134.15 451.15 152.7 479.85 152.7 500.9 152.7 507.6 137.2 510.2 131.15 510.2 119.5 510.2 101.05 501.05 88.7 499.3 82 492 78.15
M 495.35 119
Q 495.35 119.25 494.1 128.3 490.75 137.2 480 137.2 463.3 137.2 455.6 127.3 450.75 121.15 450.75 114.7 450.75 99.95 457.7 92.65 463.9 86.2 473.05 87.7 482.1 89.05 488.4 97.25 495.35 106.25 495.35 119 Z"/>

<path fill="#FA6900" stroke="none" d="
M 218.6 79.05
Q 218.5 76.7 212.9 73.6 202.9 65.65 189.25 64.3 172.3 62.7 159.7 71.35 146.2 80.5 146.2 95.6
L 146.45 99.45
Q 147.8 103.8 153 103.05 158.05 102.55 159.3 98.85 160.05 94.25 160.9 91.3 164.25 80 188.3 77.05 202.5 75.3 212.05 90.8 217 98.7 219.1 107.25 219.1 108.85 219 109.25 219 109.35 218.6 109.75 210.7 106.4 200.65 104.4 189.5 102.45 182.1 103.3 165.25 105.4 155.85 120.5 149.4 131.15 149.4 139.55 149.4 147 153.5 150.85 161.55 157.9 184.3 155.15 196.35 153.7 208.1 149 216.9 145.4 219 143.4 218.85 145.15 220.35 147 222.35 149.6 225.9 149.1 231.85 148.35 232.85 135.85 232.75 123 232.75 121.6 232.6 95 219.1 79.5 218.85 79.3 218.6 79.05
M 217.15 127.2
Q 217.15 130.8 208.45 135 198.55 139.8 184.3 141.7 171.95 143.15 167.25 142.3 162.9 141.7 162.9 138.35 162.9 127.05 171.45 121.6 178.4 117.15 189.9 117.55 199.9 117.55 208.85 120.65 217 123.85 217.15 127.2
M 387.65 70.75
Q 372.5 70.6 362.1 80.5 350.5 91.65 350.5 110.7 350.5 112.85 351.45 117.15 352.95 124.1 356.05 129.8 365.95 147.75 387.65 147.75 409.8 147.75 419.2 131.3 424.75 121.75 424.75 110.35 424.75 91.9 413.15 80.9 402.75 70.85 387.65 70.75
M 368.2 97.95
Q 371.65 88.95 376.5 88.55 398.4 90.55 405.85 98.2 409.9 102.45 409.9 110.35 409.9 110.5 409.65 113.95 409.15 118.15 407.45 121.5 402.25 132.25 387.75 132.25 375.1 132.25 369.2 122.35 365.35 116.15 365.35 110.25 365.35 105.3 368.2 97.95 Z"/>
</g>
</defs>

<g filter="url(#Filter_1)" transform="matrix( 1, 0, 0, 1, 0,0) ">
<g transform="matrix( 1, 0, 0, 1, 13.7,12) ">
<g transform="matrix( 1, 0, 0, 1, 0,0) ">
<use xlink:href="#shadow_0_Layer0_0_FILL"/>
</g>
</g>
</g>

<g transform="matrix( 1, 0, 0, 1, 0,0) ">
<use xlink:href="#Layer0_0_FILL"/>
</g>
</svg>
