
<svg xmlns="http://www.w3.org/2000/svg" version="1.1" xmlns:xlink="http://www.w3.org/1999/xlink" preserveAspectRatio="none" x="0px" y="0px" width="100px" height="100px" viewBox="0 0 100 100">
<defs>
<filter id="Filter_1" x="-20%" y="-20%" width="140%" height="140%" color-interpolation-filters="sRGB">
<feGaussianBlur in="SourceGraphic" stdDeviation="1.3333333333333333,1.3333333333333333" result="result1"/>
</filter>

<g id="shadow3_0_Layer0_0_FILL">
<path fill="#000000" stroke="none" d="
M 106.8 23.9
Q 100.1 14.85 92.05 9.2 73.3 -3.9 47.15 1.65 3.15 11.05 0.2 57.25 -3.45 114.85 57.85 114.6 78.65 114.5 92.05 106.6 116.1 92.4 116.1 52.95 116.35 36.9 106.8 23.9
M 99.4 67.9
Q 97.75 79.3 92.05 86.7 84.95 96 71.5 99.05 25.25 109.2 11.25 71.2 5.9 52.6 18.25 32.55 30.55 12.5 60.1 15.15 82.1 17.6 92.05 29.7 103.05 42.95 99.4 67.9
M 55.7 45.2
Q 55.5 45.4 55.3 45.6 50.35 40.55 45.75 37.2 33.25 28.05 33.25 40.85
L 45.3 55.5
Q 37.25 63.85 29.25 73.7 29.25 73.9 30.05 77.45 31.8 80.85 36.75 80.85 44.6 80.85 57.3 69.4 69.85 82.85 74.1 82.85 77.3 82.85 79.35 80.35 81.1 78.15 81.1 75.45 81.1 73.3 70.45 61.8 68.95 60.25 67.7 58.9 72.9 53.15 77.25 47.35 82.1 40.9 82.1 39.6 82.1 20.65 55.7 45.2 Z"/>
</g>

<g id="Layer0_0_FILL">
<path fill="#FF3333" stroke="none" d="
M 97.85 44.85
Q 98.1 31.55 90.15 20.75 84.6 13.25 77.9 8.55 62.35 -2.35 40.65 2.3 4.15 10.1 1.7 48.4 -1.35 96.25 49.55 96 66.8 95.95 77.9 89.4 97.85 77.6 97.85 44.85
M 51.4 13.5
Q 69.65 15.5 77.9 25.55 87.05 36.55 84 57.25 82.65 66.7 77.9 72.85 72 80.6 60.85 83.1 22.45 91.55 10.85 60 6.4 44.55 16.65 27.95 26.85 11.3 51.4 13.5
M 65.65 40.2
Q 69.65 34.85 69.65 33.8 69.65 18.05 47.75 38.4 47.6 38.6 47.4 38.75 43.3 34.55 39.5 31.8 29.1 24.2 29.1 34.8
L 39.1 46.95
Q 32.45 53.9 25.8 62.1 25.8 62.25 26.45 65.2 27.9 68 32 68 38.55 68 49.05 58.5 59.5 69.65 63 69.65 65.65 69.65 67.35 67.6 68.8 65.75 68.8 63.55 68.8 61.75 60 52.2 58.75 50.9 57.7 49.8 62 45 65.65 40.2 Z"/>
</g>
</defs>

<g filter="url(#Filter_1)" transform="matrix( 1, 0, 0, 1, 0,0) ">
<g transform="matrix( 0.829925537109375, 0, 0, 0.829925537109375, 1.85,3.2) ">
<g transform="matrix( 1, 0, 0, 1, 0,0) ">
<use xlink:href="#shadow3_0_Layer0_0_FILL"/>
</g>
</g>
</g>

<g transform="matrix( 1, 0, 0, 1, 0,0) ">
<use xlink:href="#Layer0_0_FILL"/>
</g>
</svg>
