
<svg xmlns="http://www.w3.org/2000/svg" version="1.1" xmlns:xlink="http://www.w3.org/1999/xlink" preserveAspectRatio="none" x="0px" y="0px" width="100px" height="100px" viewBox="0 0 100 100">
<defs>
<g id="Layer0_0_FILL">
<path fill="#FF3333" stroke="none" d="
M 98.55 46.2
Q 98.8 32.95 90.9 22.15 72.4 -2.8 41.55 3.8 5.15 11.6 2.65 49.75 -0.35 97.45 50.35 97.2 98.55 97.05 98.55 46.2
M 61.7 84.35
Q 23.4 92.75 11.85 61.3 7.35 45.9 17.6 29.3 27.8 12.7 52.25 14.95 90.5 19.25 84.75 58.6 81.65 79.8 61.7 84.35
M 70.45 35.15
Q 70.45 19.5 48.6 39.8 48.4 39.95 48.25 40.15 44.15 35.95 40.35 33.15 30.05 25.6 30.05 36.2
L 40 48.35
Q 33.35 55.25 26.7 63.4 26.7 63.55 27.35 66.5 28.85 69.3 32.9 69.3 39.4 69.3 49.9 59.85 60.3 70.95 63.8 70.95 66.45 70.95 68.15 68.9 69.6 67.05 69.6 64.8 69.6 63.05 60.75 53.55 59.55 52.3 58.55 51.15 62.85 46.4 66.45 41.55 70.45 36.25 70.45 35.15 Z"/>
</g>
</defs>

<g transform="matrix( 1, 0, 0, 1, 0,0) ">
<use xlink:href="#Layer0_0_FILL"/>
</g>
</svg>
